<svg width="20" height="18" viewBox="0 0 20 18" fill="none" xmlns="http://www.w3.org/2000/svg">
<g clip-path="url(#clip0_1_143)">
<path d="M15.8333 -0.333333H15V-1.16667C15 -1.38768 14.9122 -1.59964 14.7559 -1.75592C14.5996 -1.9122 14.3877 -2 14.1667 -2C13.9457 -2 13.7337 -1.9122 13.5774 -1.75592C13.4211 -1.59964 13.3333 -1.38768 13.3333 -1.16667V-0.333333H6.66667V-1.16667C6.66667 -1.38768 6.57887 -1.59964 6.42259 -1.75592C6.26631 -1.9122 6.05435 -2 5.83333 -2C5.61232 -2 5.40036 -1.9122 5.24408 -1.75592C5.0878 -1.59964 5 -1.38768 5 -1.16667V-0.333333H4.16667C3.062 -0.33201 2.00296 0.107402 1.22185 0.888517C0.440735 1.66963 0.00132321 2.72867 0 3.83333L0 13.8333C0.00132321 14.938 0.440735 15.997 1.22185 16.7782C2.00296 17.5593 3.062 17.9987 4.16667 18H15.8333C16.938 17.9987 17.997 17.5593 18.7782 16.7782C19.5593 15.997 19.9987 14.938 20 13.8333V3.83333C19.9987 2.72867 19.5593 1.66963 18.7782 0.888517C17.997 0.107402 16.938 -0.33201 15.8333 -0.333333V-0.333333ZM1.66667 3.83333C1.66667 3.17029 1.93006 2.53441 2.3989 2.06557C2.86774 1.59673 3.50363 1.33333 4.16667 1.33333H15.8333C16.4964 1.33333 17.1323 1.59673 17.6011 2.06557C18.0699 2.53441 18.3333 3.17029 18.3333 3.83333V4.66667H1.66667V3.83333ZM15.8333 16.3333H4.16667C3.50363 16.3333 2.86774 16.0699 2.3989 15.6011C1.93006 15.1323 1.66667 14.4964 1.66667 13.8333V6.33333H18.3333V13.8333C18.3333 14.4964 18.0699 15.1323 17.6011 15.6011C17.1323 16.0699 16.4964 16.3333 15.8333 16.3333Z" fill="#C4C4C4"/>
<path d="M10 11.75C10.6904 11.75 11.25 11.1904 11.25 10.5C11.25 9.80964 10.6904 9.25 10 9.25C9.30964 9.25 8.75 9.80964 8.75 10.5C8.75 11.1904 9.30964 11.75 10 11.75Z" fill="#C4C4C4"/>
<path d="M5.83344 11.75C6.52379 11.75 7.08344 11.1904 7.08344 10.5C7.08344 9.80964 6.52379 9.25 5.83344 9.25C5.14308 9.25 4.58344 9.80964 4.58344 10.5C4.58344 11.1904 5.14308 11.75 5.83344 11.75Z" fill="#C4C4C4"/>
<path d="M14.1666 11.75C14.8569 11.75 15.4166 11.1904 15.4166 10.5C15.4166 9.80964 14.8569 9.25 14.1666 9.25C13.4762 9.25 12.9166 9.80964 12.9166 10.5C12.9166 11.1904 13.4762 11.75 14.1666 11.75Z" fill="#C4C4C4"/>
</g>
<defs>
<clipPath id="clip0_1_143">
<rect width="20" height="20" fill="white" transform="translate(0 -2)"/>
</clipPath>
</defs>
</svg>
