<svg width="15" height="15" viewBox="0 0 15 15" fill="none" xmlns="http://www.w3.org/2000/svg">
<path d="M4.6875 5.625H6.5625V7.5H4.6875V5.625ZM7.5 5.625H9.375V7.5H7.5V5.625ZM10.3125 5.625H12.1875V7.5H10.3125V5.625ZM1.875 11.25H3.75V13.125H1.875V11.25ZM4.6875 11.25H6.5625V13.125H4.6875V11.25ZM7.5 11.25H9.375V13.125H7.5V11.25ZM4.6875 8.4375H6.5625V10.3125H4.6875V8.4375ZM7.5 8.4375H9.375V10.3125H7.5V8.4375ZM10.3125 8.4375H12.1875V10.3125H10.3125V8.4375ZM1.875 8.4375H3.75V10.3125H1.875V8.4375ZM12.1875 0V0.9375H10.3125V0H3.75V0.9375H1.875V0H0V15H14.0625V0H12.1875ZM13.125 14.0625H0.9375V3.75H13.125V14.0625Z" fill="#C4C4C4"/>
</svg>
