<svg width="25" height="25" viewBox="0 0 25 25" fill="none" xmlns="http://www.w3.org/2000/svg">
<g clip-path="url(#clip0_38_478)">
<path d="M24.7717 20.0843L17.1874 12.4999L24.7717 4.91551C24.8538 4.83348 24.9124 4.73817 24.9506 4.63661C25.0545 4.35848 24.9952 4.03427 24.7717 3.81083L21.1889 0.228015C20.9655 0.00457746 20.6405 -0.0540163 20.3631 0.0491087C20.2616 0.0866087 20.1663 0.145984 20.0842 0.227234L12.4999 7.81161L4.91548 0.227234C4.83345 0.145984 4.73814 0.0866087 4.63658 0.0491087C4.35845 -0.0547975 4.03423 0.00457746 3.8108 0.228015L0.227984 3.81083C0.00454694 4.03427 -0.0540468 4.35927 0.0490782 4.63661C0.0873595 4.73817 0.145953 4.83348 0.227984 4.91551L7.81236 12.4999L0.227984 20.0843C0.146734 20.1663 0.0873595 20.2616 0.0490782 20.3632C-0.054828 20.6405 0.00454694 20.9655 0.227984 21.189L3.8108 24.7718C4.03423 24.9952 4.35923 25.0538 4.63658 24.9507C4.73814 24.9124 4.83345 24.8538 4.91548 24.7718L12.4999 17.1874L20.0842 24.7718C20.1663 24.8538 20.2616 24.9124 20.3631 24.9507C20.6413 25.0546 20.9655 24.9952 21.1889 24.7718L24.7717 21.189C24.9952 20.9655 25.0545 20.6405 24.9506 20.3632C24.9124 20.2616 24.8538 20.1663 24.7717 20.0843Z" fill="#C4C4C4"/>
</g>
<defs>
<clipPath id="clip0_38_478">
<rect width="25" height="25" fill="white"/>
</clipPath>
</defs>
</svg>
