<svg width="12" height="10" viewBox="0 0 12 10" fill="none" xmlns="http://www.w3.org/2000/svg">
<path d="M5 1.25C4.47233 1.25 3.96267 1.3275 3.48567 1.48062C3.03867 1.62406 2.64067 1.82656 2.30333 2.0825C1.678 2.55687 1.33333 3.16469 1.33333 3.79312C1.33333 4.14469 1.43833 4.48594 1.645 4.80781C1.86033 5.14313 2.18567 5.45031 2.58533 5.69594C2.90233 5.89094 3.116 6.20312 3.17233 6.55469C3.18167 6.61313 3.18933 6.67188 3.195 6.73094C3.22333 6.70625 3.25133 6.68094 3.27967 6.65469C3.531 6.42 3.87 6.29031 4.22067 6.29031C4.27633 6.29031 4.33233 6.29375 4.38833 6.30031C4.59 6.32437 4.796 6.33656 5.00033 6.33656C5.528 6.33656 6.03767 6.25906 6.51467 6.10594C6.96167 5.9625 7.35967 5.76 7.697 5.50406C8.32233 5.02969 8.667 4.42188 8.667 3.79344C8.667 3.165 8.32267 2.55719 7.697 2.08281C7.35967 1.82687 6.96167 1.62437 6.51467 1.48094C6.03767 1.32781 5.528 1.25031 5.00033 1.25031L5 1.25ZM5 0C7.76133 0 10 1.69844 10 3.79344C10 5.88844 7.76133 7.58687 5 7.58687C4.73467 7.58687 4.47467 7.57094 4.22033 7.54094C3.14633 8.54375 1.906 8.72375 0.666667 8.75V8.50469C1.336 8.19844 1.875 7.64062 1.875 7.00344C1.875 6.91437 1.86767 6.82719 1.854 6.74187C0.723333 6.04656 0 4.98406 0 3.79375C0 1.69875 2.23867 0.0003125 5 0.0003125V0ZM10.375 8.50281C10.375 9.04906 10.7533 9.52719 11.3333 9.78969V10C10.259 9.9775 9.273 9.82312 8.34233 8.96375C8.122 8.98969 7.89667 9.00313 7.66667 9.00313C6.67233 9.00313 5.756 8.75156 5.025 8.32906C6.532 8.32406 7.95467 7.87156 9.03367 7.05281C9.57733 6.64031 10.0067 6.15594 10.3087 5.61375C10.629 5.03875 10.7917 4.42656 10.7917 3.79344C10.7917 3.69156 10.787 3.59 10.7787 3.48906C11.5347 4.07438 12 4.87219 12 5.75156C12 6.77188 11.3733 7.6825 10.3933 8.27844C10.3813 8.35156 10.375 8.42656 10.375 8.50281Z" fill="#2F3437"/>
</svg>
