<svg width="15" height="15" viewBox="0 0 15 15" fill="none" xmlns="http://www.w3.org/2000/svg">
<path d="M1.875 4.6875V14.0625C1.875 14.5781 2.29688 15 2.8125 15H11.25C11.7656 15 12.1875 14.5781 12.1875 14.0625V4.6875H1.875ZM4.6875 13.125H3.75V6.5625H4.6875V13.125ZM6.5625 13.125H5.625V6.5625H6.5625V13.125ZM8.4375 13.125H7.5V6.5625H8.4375V13.125ZM10.3125 13.125H9.375V6.5625H10.3125V13.125Z" fill="#C4C4C4"/>
<path d="M12.4219 1.875H9.375V0.703125C9.375 0.316406 9.05859 0 8.67188 0H5.39062C5.00391 0 4.6875 0.316406 4.6875 0.703125V1.875H1.64062C1.25391 1.875 0.9375 2.19141 0.9375 2.57812V3.75H13.125V2.57812C13.125 2.19141 12.8086 1.875 12.4219 1.875ZM8.4375 1.875H5.625V0.949219H8.4375V1.875Z" fill="#C4C4C4"/>
</svg>
