<svg width="20" height="20" viewBox="0 0 20 20" fill="none" xmlns="http://www.w3.org/2000/svg">
<path d="M18.8889 2.5H17.7778V1.25C17.7778 0.5625 17.2778 0 16.6667 0H1.11111C0.5 0 0 0.5625 0 1.25V16.25C0 16.9375 0.5 17.5 1.11111 17.5H2.22222V18.75C2.22222 19.4375 2.72222 20 3.33333 20H18.8889C19.5 20 20 19.4375 20 18.75V3.75C20 3.0625 19.5 2.5 18.8889 2.5ZM2.22222 3.75V16.25H1.11333C1.11278 16.2494 1.11167 16.2488 1.11111 16.2475V1.25188C1.11167 1.25125 1.11222 1.25 1.11333 1.24937H16.665C16.6656 1.25 16.6667 1.25063 16.6672 1.25188V2.49938H3.33389C2.72278 2.49938 2.22278 3.06188 2.22278 3.74938L2.22222 3.75ZM18.8889 18.7475C18.8883 18.7481 18.8878 18.7494 18.8867 18.75H3.335C3.33444 18.7494 3.33333 18.7488 3.33278 18.7475V3.75187C3.33333 3.75125 3.33389 3.75 3.335 3.74938H18.8867C18.8872 3.75 18.8883 3.75062 18.8889 3.75187V18.7475Z" fill="#C4C4C4"/>
<path d="M16.6668 6.875C16.6668 7.91062 15.9207 8.75 15.0002 8.75C14.0796 8.75 13.3335 7.91062 13.3335 6.875C13.3335 5.83938 14.0796 5 15.0002 5C15.9207 5 16.6668 5.83938 16.6668 6.875Z" fill="#C4C4C4"/>
<path d="M17.7777 17.5H4.44434V15L8.33323 7.5L12.7777 13.75H13.8888L17.7777 10V17.5Z" fill="#C4C4C4"/>
</svg>
