<svg width="20" height="20" viewBox="0 0 20 20" fill="none" xmlns="http://www.w3.org/2000/svg">
<g clip-path="url(#clip0_1_137)">
<path d="M19.7558 18.5775L14.7816 13.6034C16.1371 11.9455 16.8036 9.83011 16.6431 7.69467C16.4827 5.55922 15.5076 3.56714 13.9196 2.13047C12.3316 0.693791 10.2521 -0.0775579 8.11131 -0.0240314C5.97052 0.0294952 3.93219 0.903801 2.41795 2.41804C0.90371 3.93228 0.0294036 5.97061 -0.0241229 8.1114C-0.0776494 10.2522 0.693699 12.3317 2.13037 13.9197C3.56705 15.5077 5.55913 16.4828 7.69457 16.6432C9.83002 16.8037 11.9454 16.1372 13.6033 14.7817L18.5774 19.7559C18.7346 19.9077 18.9451 19.9917 19.1636 19.9898C19.3821 19.9879 19.5911 19.9002 19.7456 19.7457C19.9001 19.5912 19.9878 19.3822 19.9897 19.1637C19.9916 18.9452 19.9076 18.7347 19.7558 18.5775ZM8.33327 15C7.01473 15 5.7258 14.609 4.62947 13.8765C3.53314 13.144 2.67866 12.1028 2.17408 10.8846C1.66949 9.66641 1.53747 8.32597 1.7947 7.03276C2.05194 5.73956 2.68688 4.55167 3.61923 3.61932C4.55158 2.68697 5.73946 2.05203 7.03267 1.7948C8.32588 1.53756 9.66632 1.66958 10.8845 2.17417C12.1027 2.67875 13.1439 3.53324 13.8764 4.62956C14.6089 5.72589 14.9999 7.01482 14.9999 8.33337C14.998 10.1009 14.2949 11.7954 13.0451 13.0452C11.7953 14.295 10.1008 14.998 8.33327 15Z" fill="#C4C4C4"/>
</g>
<defs>
<clipPath id="clip0_1_137">
<rect width="20" height="20" fill="white"/>
</clipPath>
</defs>
</svg>
