<svg width="22" height="18" viewBox="0 0 22 18" fill="none" xmlns="http://www.w3.org/2000/svg">
<g clip-path="url(#clip0_66_2)">
<path d="M14.6667 13.5461V12.6185C16.013 11.9205 17.1111 10.179 17.1111 8.43805C17.1111 5.64186 17.1111 3.37555 13.4445 3.37555C9.7778 3.37555 9.7778 5.64186 9.7778 8.43805C9.7778 10.1795 10.876 11.9205 12.2222 12.6185V13.5461C8.07647 13.8583 4.88892 15.7331 4.88892 18H22C22 15.7331 18.8125 13.8577 14.6667 13.5461Z" fill="#C4C4C4"/>
<path d="M6.24861 13.9804C7.30461 13.3448 8.61789 12.8616 10.0638 12.5668C9.77655 12.2541 9.51561 11.9053 9.29072 11.5296C8.71017 10.5587 8.40278 9.48938 8.40278 8.4375C8.40278 6.92494 8.40278 5.49675 8.987 4.32844C9.55411 3.19444 10.5747 2.49187 12.0279 2.22806C11.7046 0.883687 10.8448 0 8.55555 0C4.88889 0 4.88889 2.26631 4.88889 5.0625C4.88889 6.804 5.98705 8.54494 7.33333 9.243V10.1706C3.18756 10.4827 0 12.3576 0 14.6244H5.32828C5.60572 14.3978 5.9125 14.1818 6.24861 13.9798V13.9804Z" fill="#C4C4C4"/>
</g>
<defs>
<clipPath id="clip0_66_2">
<rect width="22" height="18" fill="white"/>
</clipPath>
</defs>
</svg>
